<mxfile host="app.diagrams.net" agent="Mozilla/5.0 (Windows NT 10.0; Win64; x64) AppleWebKit/537.36 (KHTML, like Gecko) Chrome/135.0.0.0 Safari/537.36 OPR/120.0.0.0" version="28.1.1">
  <diagram name="PÃ¡gina-1" id="mADNrefbnfNIxOCeSumC">
    <mxGraphModel dx="1385" dy="789" grid="0" gridSize="10" guides="1" tooltips="1" connect="1" arrows="1" fold="1" page="1" pageScale="1" pageWidth="1169" pageHeight="1654" math="0" shadow="0">
      <root>
        <mxCell id="0" />
        <mxCell id="1" parent="0" />
        <mxCell id="SaOgdoou1rAtk1s_QA2q-3" style="edgeStyle=orthogonalEdgeStyle;rounded=0;orthogonalLoop=1;jettySize=auto;html=1;" parent="1" source="SaOgdoou1rAtk1s_QA2q-1" target="SaOgdoou1rAtk1s_QA2q-2" edge="1">
          <mxGeometry relative="1" as="geometry" />
        </mxCell>
        <mxCell id="SaOgdoou1rAtk1s_QA2q-1" value="N1" style="ellipse;whiteSpace=wrap;html=1;aspect=fixed;" parent="1" vertex="1">
          <mxGeometry x="540" y="80" width="80" height="80" as="geometry" />
        </mxCell>
        <mxCell id="SaOgdoou1rAtk1s_QA2q-6" style="edgeStyle=orthogonalEdgeStyle;rounded=0;orthogonalLoop=1;jettySize=auto;html=1;" parent="1" source="SaOgdoou1rAtk1s_QA2q-2" target="SaOgdoou1rAtk1s_QA2q-5" edge="1">
          <mxGeometry relative="1" as="geometry" />
        </mxCell>
        <mxCell id="8QhQAobiXEwXyDfeo4_x-3" value="false" style="edgeLabel;html=1;align=center;verticalAlign=middle;resizable=0;points=[];" vertex="1" connectable="0" parent="SaOgdoou1rAtk1s_QA2q-6">
          <mxGeometry x="-0.0545" y="3" relative="1" as="geometry">
            <mxPoint as="offset" />
          </mxGeometry>
        </mxCell>
        <mxCell id="SaOgdoou1rAtk1s_QA2q-22" style="edgeStyle=orthogonalEdgeStyle;rounded=0;orthogonalLoop=1;jettySize=auto;html=1;entryX=1;entryY=0.5;entryDx=0;entryDy=0;" parent="1" source="SaOgdoou1rAtk1s_QA2q-2" target="SaOgdoou1rAtk1s_QA2q-14" edge="1">
          <mxGeometry relative="1" as="geometry" />
        </mxCell>
        <mxCell id="8QhQAobiXEwXyDfeo4_x-2" value="true" style="edgeLabel;html=1;align=center;verticalAlign=middle;resizable=0;points=[];" vertex="1" connectable="0" parent="SaOgdoou1rAtk1s_QA2q-22">
          <mxGeometry x="-0.2545" y="-2" relative="1" as="geometry">
            <mxPoint as="offset" />
          </mxGeometry>
        </mxCell>
        <mxCell id="SaOgdoou1rAtk1s_QA2q-2" value="N2" style="ellipse;whiteSpace=wrap;html=1;aspect=fixed;" parent="1" vertex="1">
          <mxGeometry x="540" y="190" width="80" height="80" as="geometry" />
        </mxCell>
        <mxCell id="SaOgdoou1rAtk1s_QA2q-23" style="edgeStyle=orthogonalEdgeStyle;rounded=0;orthogonalLoop=1;jettySize=auto;html=1;entryX=0.5;entryY=0;entryDx=0;entryDy=0;" parent="1" source="SaOgdoou1rAtk1s_QA2q-5" target="SaOgdoou1rAtk1s_QA2q-7" edge="1">
          <mxGeometry relative="1" as="geometry" />
        </mxCell>
        <mxCell id="SaOgdoou1rAtk1s_QA2q-5" value="N5" style="ellipse;whiteSpace=wrap;html=1;aspect=fixed;" parent="1" vertex="1">
          <mxGeometry x="744" y="190" width="80" height="80" as="geometry" />
        </mxCell>
        <mxCell id="8QhQAobiXEwXyDfeo4_x-6" style="edgeStyle=orthogonalEdgeStyle;rounded=0;orthogonalLoop=1;jettySize=auto;html=1;" edge="1" parent="1" source="SaOgdoou1rAtk1s_QA2q-7" target="8QhQAobiXEwXyDfeo4_x-4">
          <mxGeometry relative="1" as="geometry" />
        </mxCell>
        <mxCell id="8QhQAobiXEwXyDfeo4_x-19" style="edgeStyle=orthogonalEdgeStyle;rounded=0;orthogonalLoop=1;jettySize=auto;html=1;entryX=1;entryY=0.5;entryDx=0;entryDy=0;" edge="1" parent="1" source="SaOgdoou1rAtk1s_QA2q-7" target="SaOgdoou1rAtk1s_QA2q-1">
          <mxGeometry relative="1" as="geometry">
            <Array as="points">
              <mxPoint x="849" y="350" />
              <mxPoint x="849" y="120" />
            </Array>
          </mxGeometry>
        </mxCell>
        <mxCell id="SaOgdoou1rAtk1s_QA2q-7" value="N6" style="ellipse;whiteSpace=wrap;html=1;aspect=fixed;" parent="1" vertex="1">
          <mxGeometry x="744" y="310" width="80" height="80" as="geometry" />
        </mxCell>
        <mxCell id="SaOgdoou1rAtk1s_QA2q-11" value="N4" style="ellipse;whiteSpace=wrap;html=1;aspect=fixed;" parent="1" vertex="1">
          <mxGeometry x="346" y="660" width="80" height="80" as="geometry" />
        </mxCell>
        <mxCell id="SaOgdoou1rAtk1s_QA2q-19" style="edgeStyle=orthogonalEdgeStyle;rounded=0;orthogonalLoop=1;jettySize=auto;html=1;entryX=1;entryY=0.5;entryDx=0;entryDy=0;" parent="1" source="SaOgdoou1rAtk1s_QA2q-12" target="SaOgdoou1rAtk1s_QA2q-17" edge="1">
          <mxGeometry relative="1" as="geometry" />
        </mxCell>
        <mxCell id="SaOgdoou1rAtk1s_QA2q-12" value="N9" style="ellipse;whiteSpace=wrap;html=1;aspect=fixed;" parent="1" vertex="1">
          <mxGeometry x="744" y="660" width="80" height="80" as="geometry" />
        </mxCell>
        <mxCell id="SaOgdoou1rAtk1s_QA2q-20" style="edgeStyle=orthogonalEdgeStyle;rounded=0;orthogonalLoop=1;jettySize=auto;html=1;" parent="1" source="SaOgdoou1rAtk1s_QA2q-14" target="SaOgdoou1rAtk1s_QA2q-11" edge="1">
          <mxGeometry relative="1" as="geometry" />
        </mxCell>
        <mxCell id="SaOgdoou1rAtk1s_QA2q-14" value="N3" style="ellipse;whiteSpace=wrap;html=1;aspect=fixed;" parent="1" vertex="1">
          <mxGeometry x="346" y="190" width="80" height="80" as="geometry" />
        </mxCell>
        <mxCell id="SaOgdoou1rAtk1s_QA2q-21" style="edgeStyle=orthogonalEdgeStyle;rounded=0;orthogonalLoop=1;jettySize=auto;html=1;entryX=1;entryY=0.5;entryDx=0;entryDy=0;" parent="1" source="SaOgdoou1rAtk1s_QA2q-17" target="SaOgdoou1rAtk1s_QA2q-11" edge="1">
          <mxGeometry relative="1" as="geometry" />
        </mxCell>
        <mxCell id="SaOgdoou1rAtk1s_QA2q-17" value="N10" style="ellipse;whiteSpace=wrap;html=1;aspect=fixed;" parent="1" vertex="1">
          <mxGeometry x="513" y="660" width="80" height="80" as="geometry" />
        </mxCell>
        <mxCell id="8QhQAobiXEwXyDfeo4_x-15" style="edgeStyle=orthogonalEdgeStyle;rounded=0;orthogonalLoop=1;jettySize=auto;html=1;" edge="1" parent="1" source="8QhQAobiXEwXyDfeo4_x-4" target="8QhQAobiXEwXyDfeo4_x-5">
          <mxGeometry relative="1" as="geometry" />
        </mxCell>
        <mxCell id="8QhQAobiXEwXyDfeo4_x-20" style="edgeStyle=orthogonalEdgeStyle;rounded=0;orthogonalLoop=1;jettySize=auto;html=1;" edge="1" parent="1" source="8QhQAobiXEwXyDfeo4_x-4" target="SaOgdoou1rAtk1s_QA2q-1">
          <mxGeometry relative="1" as="geometry">
            <Array as="points">
              <mxPoint x="873" y="466" />
              <mxPoint x="873" y="103" />
            </Array>
          </mxGeometry>
        </mxCell>
        <mxCell id="8QhQAobiXEwXyDfeo4_x-4" value="N7" style="ellipse;whiteSpace=wrap;html=1;aspect=fixed;" vertex="1" parent="1">
          <mxGeometry x="744" y="426" width="80" height="80" as="geometry" />
        </mxCell>
        <mxCell id="8QhQAobiXEwXyDfeo4_x-16" style="edgeStyle=orthogonalEdgeStyle;rounded=0;orthogonalLoop=1;jettySize=auto;html=1;" edge="1" parent="1" source="8QhQAobiXEwXyDfeo4_x-5" target="SaOgdoou1rAtk1s_QA2q-12">
          <mxGeometry relative="1" as="geometry" />
        </mxCell>
        <mxCell id="8QhQAobiXEwXyDfeo4_x-21" style="edgeStyle=orthogonalEdgeStyle;rounded=0;orthogonalLoop=1;jettySize=auto;html=1;" edge="1" parent="1" source="8QhQAobiXEwXyDfeo4_x-5" target="SaOgdoou1rAtk1s_QA2q-1">
          <mxGeometry relative="1" as="geometry">
            <Array as="points">
              <mxPoint x="975" y="583" />
              <mxPoint x="975" y="93" />
            </Array>
          </mxGeometry>
        </mxCell>
        <mxCell id="8QhQAobiXEwXyDfeo4_x-5" value="N8" style="ellipse;whiteSpace=wrap;html=1;aspect=fixed;" vertex="1" parent="1">
          <mxGeometry x="744" y="543" width="80" height="80" as="geometry" />
        </mxCell>
      </root>
    </mxGraphModel>
  </diagram>
</mxfile>
